<?xml version="1.0" standalone="no"?> <!DOCTYPE svg PUBLIC "-//W3C//DTD SVG 1.0//EN" "http://www.w3.org/TR/2001/REC-SVG-20010904/DTD/svg10.dtd" > <svg xmlns="http://www.w3.org/2000/svg" width="100%" height="100%">
<defs >
<font horiz-adv-x="403" ><font-face
    font-family="Dragonfly"
    units-per-em="1000"
    panose-1="0 0 4 0 0 0 0 0 0 0"
    ascent="821"
    descent="-250"
    alphabetic="0" />
<missing-glyph horiz-adv-x="500" d="M63 0V750H438V0H63ZM125 63H375V688H125V63Z" />
<glyph unicode=" " glyph-name="space" horiz-adv-x="260" />
<glyph unicode="!" glyph-name="exclam" horiz-adv-x="211" d="M152 550Q155 541 155 517Q155 401 110 183Q106 162 62 162Q62 162 57 166T53 174Q57 346 44 558Q42 587 69 588Q138 590 152 550ZM148 81Q150 73 150 65Q150 24 107 6Q91 -1 75 -1Q53 -1 36 11Q26
25 26 44Q26 62 37 93Q44 106 68 115T114 122Q140 114 148 81Z" />
<glyph unicode="&quot;" glyph-name="quotedbl" horiz-adv-x="389" d="M304 593Q304 578 282 495Q259 407 250 407Q242 407 218 494Q194 578 194 593Q194 614 213 638T250 662Q267 662 285 639T304 593ZM137 593Q137 578 115 495Q91 407 82 407Q74 407 50 494Q27
578 27 593Q27 615 46 638T82 662Q100 662 118 639T137 593Z" />
<glyph unicode="#" glyph-name="numbersign" horiz-adv-x="370" d="M343 537Q337 515 320 510Q311 507 282 507H257Q249 473 244 438Q258 436 280 433Q282 432 300 432T319 422Q313 401 296 395Q287 392 258 392H240Q238 372 236 351Q233 334 229 332T220 330Q217
330 197 347Q192 359 190 392H126Q124 372 121 351Q119 334 115 332T106 330Q99 330 82 349Q79 355 77 384Q20 381 19 384Q15 396 40 419Q54 426 81 433Q81 435 93 499Q75 497 57 495Q43 494 42 498Q38 511 66 534Q84 543 107 549Q112 574 119 584Q122 596 125
607Q129 622 138 624Q162 623 162 602Q162 596 157 570Q157 570 153 554H222Q226 568 233 584Q235 587 240 607Q243 622 251 624Q275 623 275 602Q275 595 270 570Q270 570 267 552Q288 550 304 548Q305 548 327 546Q342 545 343 537ZM210 507H142Q140 492 136
471T130 440Q130 440 196 440Q200 461 210 507Z" />
<glyph unicode="$" glyph-name="dollar" horiz-adv-x="550" d="M486 314Q487 308 487 304Q487 295 475 281T460 242Q456 207 397 185Q354 171 310 158Q305 153 304 119Q304 80 302 74Q298 62 278 62Q256 62 243 72T229 110Q229 115 230 125T231 141Q231 158 223
161Q176 167 128 173Q64 186 41 223Q33 236 33 247Q33 281 77 281Q88 281 99 277Q230 248 271 248Q320 248 369 264Q382 277 369 297Q331 316 255 319Q158 323 135 328Q71 341 41 384Q36 393 36 403Q36 428 57 455T108 493Q157 507 222 529Q229 533 227 567T230
606Q241 616 258 616Q288 616 291 596Q291 576 291 557Q291 526 300 526Q344 526 389 507Q442 485 452 451Q454 429 440 424Q421 421 392 435Q359 451 349 452Q229 459 241 459Q188 459 153 441Q151 435 151 430Q151 413 203 408Q329 397 374 386Q475 363 486 314Z"
/>
<glyph unicode="%" glyph-name="percent" horiz-adv-x="618" d="M326 503Q334 465 311 447Q277 420 258 411Q217 391 162 391Q112 391 83 402Q45 416 8 457Q-7 483 -7 501Q-7 510 -4 526T-1 552Q-1 581 14 596Q75 646 156 646Q232 646 292 601Q323 572 325 551Q325
527 326 503ZM567 590Q574 531 529 524T400 425Q362 378 323 331Q236 231 34 10Q27 3 20 3Q2 3 2 26Q2 34 7 40Q39 90 366 462Q380 472 378 480Q374 490 374 496Q374 507 391 513Q412 520 418 530Q439 556 460 582Q504 630 537 634Q561 640 567 590ZM574 120Q583
81 559 62Q526 36 506 27Q465 7 410 7Q359 7 331 18Q293 31 256 73Q240 102 240 119Q240 128 243 138Q244 142 246 176Q247 199 263 212Q322 262 404 262Q480 262 540 218Q570 190 572 169Q573 144 574 120ZM274 538Q218 582 152 582Q121 582 90 572T38 539Q28
528 28 520Q28 507 59 490Q105 465 153 465Q194 465 266 490Q288 498 288 515Q288 528 274 538ZM522 153Q465 198 400 198Q369 198 338 187T286 154Q276 144 276 137Q276 126 307 106Q353 82 401 82Q439 82 514 106Q536 113 536 130Q536 142 522 153Z" />
<glyph unicode="&amp;" glyph-name="ampersand" horiz-adv-x="909" d="M859 281Q871 272 871 258Q871 237 838 203Q833 198 819 198Q804 198 771 205T732 212Q726 212 726 209Q727 199 727 190Q727 138 674 118Q515 59 361 59Q192 59 44 131Q8 155 8 202Q8 222
16 241Q30 258 96 281Q152 301 152 323Q152 344 113 378Q111 379 111 383Q111 402 143 442Q177 486 208 497Q297 527 402 527Q536 527 624 478Q639 469 650 449T662 410Q662 397 655 391T640 384Q630 384 610 404T573 428Q476 448 369 448Q269 448 191 430Q167
424 167 401Q167 394 172 389Q215 362 281 355Q304 353 401 351Q432 351 432 319Q432 289 408 289Q275 288 221 281Q117 267 46 220Q59 201 143 171Q271 148 385 148Q551 148 680 196Q682 202 682 206Q682 213 675 214Q665 215 664 216Q657 215 600 207Q560 202
539 202Q502 202 502 216Q502 226 515 239T540 256Q656 291 762 291Q815 291 859 281Z" />
<glyph unicode="&apos;" glyph-name="quotesingle" horiz-adv-x="222" d="M137 593Q137 578 115 495Q91 407 82 407Q74 407 50 494Q27 578 27 593Q27 615 46 638T82 662Q100 662 118 639T137 593Z" />
<glyph unicode="(" glyph-name="parenleft" horiz-adv-x="367" d="M321 -224Q321 -229 314 -235T299 -242Q290 -242 278 -233Q220 -174 204 -155Q157 -99 128 -39Q63 96 63 256Q63 391 137 549Q186 653 278 743Q287 750 299 750Q306 750 313 745T321 736Q321 724
311 716Q138 533 138 256Q138 100 181 2Q209 -62 316 -210Q321 -217 321 -224Z" />
<glyph unicode=")" glyph-name="parenright" horiz-adv-x="367" d="M290 256Q290 111 219 -40Q170 -144 76 -233Q66 -242 56 -242Q50 -242 43 -236T36 -224Q36 -214 46 -207Q218 -25 218 256Q218 535 44 714Q36 725 36 736Q36 739 43 744T56 750Q68 750 76 743Q176
652 229 548Q290 427 290 256Z" />
<glyph unicode="*" glyph-name="asterisk" horiz-adv-x="362" d="M298 389Q298 359 268 359Q253 359 227 394Q197 433 178 442Q180 408 192 378T204 337Q204 307 173 307Q161 307 152 316T143 337Q143 346 155 377T169 442Q150 433 120 394Q94 359 79 359Q49 359
49 389Q49 415 87 423Q145 434 167 448Q145 461 87 473Q49 480 49 506Q49 536 79 536Q94 536 120 501Q149 461 169 453Q168 485 156 516T143 559Q143 570 152 579T173 589Q186 589 195 580T204 559Q204 548 192 517T178 453Q198 461 227 501Q253 536 268 536Q280
536 289 527T298 506Q298 480 260 473Q202 461 180 448Q202 434 260 423Q298 415 298 389Z" />
<glyph unicode="+" glyph-name="plus" horiz-adv-x="420" d="M327 250Q327 216 304 206Q291 200 251 200Q241 200 227 201Q212 201 206 201Q214 138 214 118Q214 94 208 90T194 86Q181 86 149 110Q133 138 127 174Q127 178 126 185T124 196Q76 188 52 188Q27 188
23 195T18 209Q18 223 42 252Q72 269 108 274Q114 276 122 276Q123 288 130 338Q130 338 136 371Q140 392 151 394Q185 393 195 371Q202 358 201 318Q201 311 200 298Q200 286 200 280Q248 276 270 271Q271 271 303 265Q324 261 327 250Z" />
<glyph unicode="," glyph-name="comma" horiz-adv-x="213" d="M158 37Q160 29 160 20Q160 -10 137 -41T93 -73Q83 -73 83 -67Q83 -64 95 -49T108 -25Q108 -16 96 -9Q73 -3 50 3Q9 17 9 41Q9 49 14 59Q35 94 70 94Q97 94 125 73Q150 56 158 37Z" />
<glyph unicode="-" glyph-name="hyphen" horiz-adv-x="376" d="M294 223Q294 193 274 183Q261 178 226 178Q158 179 138 177Q36 167 46 167Q24 167 21 173T17 186Q17 199 38 224Q60 238 97 244Q167 256 243 242Q258 239 273 237Q292 233 294 223Z" />
<glyph unicode="." glyph-name="period" horiz-adv-x="178" d="M123 41Q123 2 92 -3Q82 -4 74 -4Q26 -4 11 33Q8 40 8 47Q8 81 48 96Q55 97 61 97Q123 97 123 41Z" />
<glyph unicode="/" glyph-name="slash" horiz-adv-x="517" d="M521 730Q530 712 530 697Q530 669 496 652Q435 621 353 481Q301 392 281 342Q127 99 -57 -194Q-63 -204 -72 -204Q-88 -204 -88 -187Q-88 -185 -87 -182Q-74 -149 105 150Q302 479 311 496Q322 510
322 520Q322 526 318 529Q308 538 308 545Q308 554 330 566T357 591Q375 628 393 666Q433 737 476 758Q495 764 521 730Z" />
<glyph unicode="0" glyph-name="zero" horiz-adv-x="1173" d="M1068 221Q1068 164 1022 137Q915 74 854 51Q723 3 549 3Q388 3 299 27Q179 59 60 156Q16 216 16 255Q16 270 25 297T34 344Q34 349 34 360T34 378Q34 441 82 472Q269 592 528 592Q771 592 963 484Q1061
415 1061 351Q1061 342 1059 323T1057 293Q1057 279 1062 256T1068 221ZM937 359Q736 474 517 474Q410 474 301 446Q235 429 201 413T123 360T78 299Q78 258 198 207Q352 142 516 142Q653 142 902 207Q996 231 996 285Q996 325 937 359Z" />
<glyph unicode="1" glyph-name="one" horiz-adv-x="233" d="M153 562Q155 561 155 525Q155 442 145 246Q136 55 132 48Q109 8 71 8Q60 8 51 12Q39 21 34 250T24 480Q9 487 9 500Q9 510 20 519Q46 534 72 550Q106 569 128 569Q142 569 153 562Z" />
<glyph unicode="2" glyph-name="two" horiz-adv-x="1142" d="M1059 173Q1035 90 958 32Q940 19 866 19Q825 19 537 42Q366 56 296 56Q153 56 29 20Q9 14 9 39Q9 76 39 91Q111 127 491 270Q884 417 927 437Q940 443 940 455Q940 465 930 466Q866 469 651 476Q352
485 197 476Q185 470 185 465Q185 459 195 456T213 453Q211 453 230 454Q243 455 248 450T253 435Q251 425 244 422Q204 403 137 403Q28 403 20 449Q15 505 89 533Q115 543 220 563Q420 601 584 601Q816 601 1011 527Q1050 504 1050 431Q1050 404 1042 393Q980
328 779 269Q609 223 439 177Q388 162 388 150Q388 143 413 142Q570 146 728 151Q894 156 1042 186Q1047 188 1050 188Q1061 188 1059 173ZM181 471Q179 472 176 473Q174 473 177 466Q181 466 181 471Z" />
<glyph unicode="3" glyph-name="three" horiz-adv-x="1126" d="M1038 186Q1031 176 1037 141Q1043 110 1024 98Q883 10 630 10Q536 10 379 24Q285 32 191 39Q81 55 11 104Q1 111 1 126Q1 143 12 161T38 186Q115 220 212 220Q271 220 282 202Q285 196 285 191Q285
177 259 171Q251 170 206 166Q198 165 198 160Q198 142 222 142Q607 135 964 152Q980 153 980 163Q980 173 965 187T932 208Q839 246 685 278Q679 280 501 313Q459 321 459 350Q459 376 487 391T553 407Q568 407 604 404T660 400Q676 407 760 434Q821 453 856 476Q860
483 857 488Q855 493 849 492Q602 508 502 508Q262 508 107 453Q104 452 101 452Q90 452 90 467Q90 490 109 520Q129 555 156 569Q209 597 294 602Q372 605 450 607Q554 603 658 600Q776 593 873 573Q907 562 927 531Q937 518 937 503Q937 482 919 460Q903 442
883 432Q878 430 803 396Q777 384 777 372Q777 363 793 358Q877 334 944 300Q1041 250 1041 203Q1041 194 1038 186Z" />
<glyph unicode="4" glyph-name="four" horiz-adv-x="1171" d="M1073 229Q1078 210 1051 186Q1018 156 1016 152Q1014 142 1013 101Q1012 71 1002 50Q992 35 970 20T929 4Q923 4 918 6Q907 10 909 54T908 102Q903 111 886 116Q676 125 466 134Q61 153 47 159Q1
178 1 193Q1 197 3 202Q13 232 55 249Q93 261 130 273Q129 273 437 389Q778 517 932 572Q936 574 945 574Q963 574 986 568T1016 553Q1019 551 1019 511Q1019 480 1017 400T1015 295Q1015 269 1016 267Q1024 253 1045 250T1073 229ZM913 481Q909 485 909 488Q841
476 579 388Q312 298 209 251Q200 247 200 242Q200 236 217 234Q342 245 640 249Q897 253 901 257Q910 262 913 481Z" />
<glyph unicode="5" glyph-name="five" horiz-adv-x="1159" d="M1073 251Q1075 241 1075 232Q1075 130 892 71Q730 19 532 19Q371 19 169 54Q77 70 42 137Q36 148 36 158Q36 187 73 191Q104 194 110 171T136 147Q375 133 484 133Q756 133 978 196Q1015 211 1015
224Q1015 236 984 249Q881 292 774 307Q721 314 551 322Q524 323 495 323Q254 323 33 259Q26 256 21 347Q16 428 16 509Q16 575 20 576Q66 585 241 585Q330 585 464 583T607 580Q612 580 878 584Q1037 586 1043 580Q1048 571 1048 562Q1048 545 1029 527Q1014 515
999 502Q931 474 828 474Q831 474 673 481Q457 491 374 497Q207 509 79 531Q70 532 70 444Q70 345 81 349Q171 378 292 395Q350 404 518 420Q535 422 557 422Q648 422 774 400Q907 376 984 344Q1069 308 1073 251Z" />
<glyph unicode="6" glyph-name="six" horiz-adv-x="1142" d="M1047 240Q1047 232 1049 218T1051 196Q1051 176 1039 157Q990 92 830 42Q696 0 553 0Q370 0 189 69Q125 93 72 134Q1 187 1 237Q1 245 5 259T10 282Q10 286 9 296Q9 307 9 313Q9 388 78 439Q262 574
567 574Q683 574 749 565Q850 550 920 508Q938 494 938 477Q938 464 926 453Q915 446 905 446Q894 446 874 460T838 476Q678 498 564 498Q294 498 131 379Q104 355 88 325T80 295Q83 295 87 298Q314 397 578 397Q754 397 947 353Q1051 329 1051 273Q1051 267 1049
256T1047 240ZM993 220Q993 243 960 254Q928 260 896 267Q744 284 601 284Q369 284 150 239Q103 229 103 216Q103 207 122 193Q286 125 520 125Q719 125 911 171Q993 191 993 220Z" />
<glyph unicode="7" glyph-name="seven" horiz-adv-x="1152" d="M1046 483Q999 470 909 442Q748 383 617 290Q460 178 382 41Q381 28 381 15T363 3Q305 6 202 16Q188 20 188 33Q188 47 202 64Q420 324 756 449Q762 453 762 459Q762 471 743 471Q312 474 92 444Q79
442 56 433T22 423Q3 423 3 436Q3 461 29 505Q59 553 88 563Q98 566 565 561T1046 551Q1055 548 1055 520Q1055 484 1046 483Z" />
<glyph unicode="8" glyph-name="eight" horiz-adv-x="1158" d="M1081 167Q1080 79 977 46Q833 0 520 0Q378 0 302 10Q176 27 115 51Q11 92 11 169Q11 225 49 262Q73 286 118 304Q156 318 156 321Q156 322 140 329Q121 337 111 351Q95 372 96 407Q97 447 130 478Q156
501 205 523Q242 538 280 554Q393 576 515 576Q728 576 916 513Q974 486 981 418Q980 395 954 360T927 318Q927 314 967 301Q1016 285 1042 262Q1082 226 1081 167ZM889 444Q807 474 600 474Q361 474 209 444Q152 433 152 414Q152 396 203 381Q361 351 532 351Q732
351 884 390Q926 401 926 416Q926 431 889 444ZM996 206Q836 259 603 259Q429 259 181 227Q77 213 77 180Q77 163 114 153Q225 123 506 123Q822 123 987 153Q1028 161 1028 179Q1028 195 996 206Z" />
<glyph unicode="9" glyph-name="nine" horiz-adv-x="1211" d="M1096 359Q1099 343 1099 325Q1099 219 1020 158Q817 2 542 2Q363 2 126 70Q90 80 57 98Q20 118 18 133Q14 162 38 162Q49 162 70 156Q103 146 103 146Q244 111 406 111Q574 111 786 150Q887 181 936
205Q1021 248 1053 311Q1049 331 1034 331Q1017 331 1002 311Q892 245 745 219Q629 198 460 198Q406 198 260 202Q84 206 18 321Q3 361 3 394Q3 440 33 464Q212 581 519 581Q596 581 681 574Q805 563 881 538Q978 506 1056 434Q1082 424 1087 413T1096 359ZM949
391Q880 425 763 446Q672 462 616 462Q377 462 149 421Q62 395 62 362Q62 332 134 316Q232 294 385 294Q530 294 687 313Q836 331 929 357Q963 363 963 376Q963 384 949 391Z" />
<glyph unicode=":" glyph-name="colon" horiz-adv-x="178" d="M122 236Q124 227 124 218Q124 178 93 173Q84 172 76 172Q52 172 30 186T8 224Q8 257 49 273Q56 275 64 275Q112 275 122 236ZM123 42Q123 3 92 -2Q82 -4 73 -4Q48 -4 28 10T8 48Q8 82 48 97Q55 99
63 99Q90 99 106 84T123 42Z" />
<glyph unicode=";" glyph-name="semicolon" horiz-adv-x="218" d="M123 273Q154 256 154 234Q154 212 128 192T82 173Q64 171 44 180Q20 190 16 211Q15 216 15 222Q15 250 47 264Q71 276 103 276Q118 276 123 273ZM158 42Q160 34 160 25Q160 -5 137 -36T93 -67Q83
-67 83 -61Q83 -58 96 -43T109 -19Q109 -9 97 -3Q73 3 50 9Q9 22 9 46Q9 55 14 64Q35 99 70 99Q97 99 125 78Q150 60 158 42Z" />
<glyph unicode="&lt;" glyph-name="less" horiz-adv-x="517" d="M396 29L84 214V246L396 429V363L174 234V230L396 97V29Z" />
<glyph unicode="=" glyph-name="equal" horiz-adv-x="420" d="M327 333Q327 299 304 288Q290 282 251 283Q184 285 153 282Q147 282 102 276Q67 271 50 271Q27 271 23 278T19 292Q19 305 42 336Q91 363 172 363Q212 363 270 354Q287 351 303 348Q324 345 327 333ZM327
194Q327 160 304 150Q290 143 251 144Q180 146 153 143Q46 132 52 132Q27 132 23 139T18 153Q18 166 42 197Q92 225 175 225Q216 225 270 216Q287 213 303 210Q324 205 327 194Z" />
<glyph unicode="&gt;" glyph-name="greater" horiz-adv-x="517" d="M416 212L106 29V94L326 223V228L106 361V429L416 244V212Z" />
<glyph unicode="?" glyph-name="question" horiz-adv-x="916" d="M842 411Q805 392 738 362Q686 343 518 299Q379 263 304 226Q301 224 301 222Q301 218 322 198T344 166Q344 156 334 148T313 140Q293 140 272 156T251 189Q251 252 319 287Q379 312 438 337Q535
376 633 414Q755 465 749 479Q739 505 516 505Q239 505 92 477Q76 474 76 467Q76 458 97 447Q115 436 129 433Q156 428 182 423Q217 413 217 392Q217 388 216 384Q211 367 170 367Q133 367 96 383Q53 401 33 433Q26 449 26 464Q26 498 63 531Q210 622 423 622Q529
622 678 598Q728 590 773 570Q828 545 827 519Q826 503 842 474T859 433Q859 419 842 411ZM353 82Q355 75 355 68Q355 26 312 8Q296 1 279 1Q257 1 241 12Q230 27 230 47Q230 65 241 96Q248 109 273 117T319 124Q345 117 353 82Z" />
<glyph unicode="@" glyph-name="at" horiz-adv-x="1010" d="M937 403Q937 350 898 297T790 202Q699 147 640 147Q618 147 618 163Q618 171 626 194T635 228Q635 242 623 247Q475 158 379 158Q323 158 288 189Q261 213 261 264Q261 301 277 328Q334 420 441 454Q520
479 639 474Q676 473 717 454T758 415Q758 411 756 408Q723 318 720 224Q718 215 728 215Q756 215 796 248Q873 312 873 411Q873 503 791 550Q718 591 596 591Q423 591 275 484T127 250Q127 149 222 92Q310 39 454 39Q613 39 686 69L699 49Q666 31 592 18Q513 4
432 4Q252 4 148 68T44 239Q44 388 219 506T606 624Q766 624 853 564Q937 506 937 403ZM658 382Q658 399 608 398Q538 398 481 378Q436 362 387 322T343 271Q353 249 410 249Q454 249 491 259Q544 278 596 296Q658 325 658 382Z" />
<glyph unicode="A" glyph-name="A" horiz-adv-x="1212" d="M1137 454Q1093 395 1093 310Q1093 269 1104 201Q1119 116 1121 94Q1122 84 1132 75T1142 60Q1142 54 1136 47Q1115 31 1094 15Q1066 -4 1049 -4Q1040 -4 1033 0Q1007 16 1007 119V136Q1007 193 1002
218Q996 235 995 235Q992 235 987 230Q941 186 862 140Q620 -1 333 -1Q253 -1 164 10Q127 14 32 70Q-1 103 -1 149Q-1 167 6 205T13 264Q13 283 9 299Q7 304 7 311Q7 351 65 412Q130 481 232 531Q355 591 501 607Q568 614 638 614Q903 614 1108 522Q1141 507 1141
472Q1141 463 1137 454ZM1024 499Q1025 511 1016 514T996 521Q870 554 735 554Q498 554 314 458Q148 371 84 289Q80 276 58 240Q39 209 39 193Q39 173 64 160Q211 101 381 101Q556 101 743 163Q837 194 858 203Q922 231 962 271Q1005 292 1012 322Q1017 342 1024
499Z" />
<glyph unicode="B" glyph-name="B" horiz-adv-x="1516" d="M1446 178Q1445 94 1308 42Q1220 8 1089 -8Q965 -23 865 -23Q682 -23 429 40Q422 42 406 52T382 62Q375 62 372 54Q371 51 371 47Q371 40 374 28T378 12Q378 0 346 0Q291 0 286 47Q283 75 257 255Q237
391 237 437Q237 462 242 468Q253 477 253 485Q253 498 215 498Q204 498 190 497Q143 493 76 458Q16 427 11 429Q-1 432 -1 450Q-1 472 11 486Q114 563 284 596Q423 623 758 623Q856 623 894 619Q1213 588 1270 508Q1283 490 1283 472Q1283 441 1244 412Q1218 395
1174 364Q1153 353 1153 344Q1153 336 1174 333Q1248 331 1363 286Q1390 275 1415 248Q1447 214 1446 178ZM1384 173Q1400 183 1400 196Q1400 212 1381 226Q1312 265 1179 288Q1058 309 962 306Q735 277 627 277Q551 277 498 286Q463 292 463 308Q463 322 488 332Q523
346 798 354Q1067 361 1123 389Q1236 432 1236 462Q1236 491 1146 498Q830 522 500 522Q386 522 376 516T365 324Q365 118 377 112T438 104Q508 103 518 102Q686 86 830 86Q1062 86 1262 127Q1312 137 1327 142Q1361 153 1384 173Z" />
<glyph unicode="C" glyph-name="C" horiz-adv-x="1246" d="M1161 211Q1166 212 1170 212Q1180 212 1180 204Q1180 174 1089 112Q1013 60 885 27Q751 -7 604 -7Q350 -7 158 94Q81 134 40 188Q7 232 7 267Q7 274 9 280Q13 308 18 336Q26 385 57 424Q100 480 191
521Q427 628 680 628Q809 628 973 602Q1023 594 1076 557Q1133 516 1131 480Q1128 403 1029 378Q868 338 762 338Q742 338 722 339Q699 341 699 353Q699 366 724 364Q829 369 954 402T1084 459Q1087 477 1054 486Q1043 490 989 499Q872 519 744 519Q582 519 428
488Q286 460 197 416Q54 345 52 293Q51 250 118 204Q177 163 211 163Q366 117 583 117Q888 117 1161 211Z" />
<glyph unicode="D" glyph-name="D" horiz-adv-x="1324" d="M1260 324Q1258 273 1228 217Q1199 165 1162 139Q1057 66 960 32Q854 -5 731 -5Q596 -5 412 40Q390 46 371 51Q370 50 368 17Q367 1 353 3Q322 7 311 13Q292 23 287 49Q269 139 250 270T231 439Q231 448
232 449Q244 470 244 468Q244 471 239 473Q186 471 130 449T37 392Q33 388 29 388Q17 388 6 422Q3 445 19 464Q46 494 47 496Q126 561 233 581Q487 629 692 629Q1066 629 1206 467Q1240 428 1250 399T1260 324ZM1226 331Q1223 388 1132 447Q1078 481 896 503Q740
522 591 522Q522 522 489 517Q479 516 432 513Q403 512 383 502Q367 494 367 246Q367 123 374 117Q471 80 632 80Q773 80 901 111Q1045 146 1136 213Q1180 246 1196 263Q1224 294 1226 331Z" />
<glyph unicode="E" glyph-name="E" horiz-adv-x="1179" d="M1083 129Q998 71 843 31Q677 -12 509 -12Q196 -12 24 133Q4 170 4 202Q4 231 21 253Q57 299 117 329Q173 354 229 379Q191 401 152 424Q104 454 104 482Q104 495 113 509Q161 561 296 590Q418 616 566
616Q690 616 782 598Q880 577 908 542Q928 506 928 489Q928 459 880 458Q846 457 846 471Q846 477 853 489Q863 492 860 501Q853 510 835 511Q813 513 807 516Q785 524 606 524Q218 524 156 492Q151 488 151 482Q151 461 209 431T316 391Q353 398 393 398Q426 398
549 384Q556 333 520 333Q511 333 500 338Q471 335 415 346Q354 358 327 358Q298 358 273 350Q269 357 265 357Q261 357 256 350Q203 331 150 312Q86 287 58 248Q67 197 123 172Q173 156 222 139Q371 104 532 104Q750 104 976 168Q1050 189 1050 211Q1050 215 1047
220Q1032 237 956 237Q835 237 709 207Q695 204 652 189Q619 177 606 177Q597 177 593 182Q589 194 618 209Q641 221 668 227Q797 256 802 257Q877 272 935 272Q1002 272 1066 254Q1104 243 1104 193Q1104 143 1083 129Z" />
<glyph unicode="F" glyph-name="F" horiz-adv-x="1246" d="M1144 293Q1166 273 1166 257Q1166 246 1156 236T1137 216Q1112 187 1098 134Q1079 64 1074 53Q1055 12 1014 -3Q1003 -7 967 14T927 48Q926 52 926 55Q926 62 943 73Q1008 181 1008 192Q1008 194 1007
196Q1002 200 987 200Q975 200 896 188Q749 166 677 166Q624 166 601 177Q479 235 479 257Q479 276 562 272Q627 269 766 271T970 270Q976 270 993 268T1019 265Q1038 265 1046 274Q1061 296 1078 346T1094 422Q1096 437 1072 457Q942 519 581 519Q262 519 123
476Q92 467 92 457Q92 446 126 438Q266 430 414 416Q422 409 422 404Q422 388 378 388Q344 388 287 386T206 383Q98 383 18 427Q0 439 0 470Q0 488 7 497Q93 573 257 597Q393 612 528 626Q552 630 602 630Q737 630 871 604Q1047 570 1137 502Q1165 473 1165 410Q1165
351 1144 293Z" />
<glyph unicode="G" glyph-name="G" horiz-adv-x="1201" d="M1126 298Q1151 294 1151 277Q1151 263 1137 246T1111 221Q1105 217 1105 192Q1105 179 1111 108Q1116 47 1113 17Q1109 -7 1082 -7Q1046 -7 1044 34Q1044 56 1044 79Q1044 115 1036 115Q1034 114 1032
113Q972 70 834 34Q674 -7 518 -7Q179 -7 18 187Q6 211 6 250Q6 331 44 407Q216 577 567 618Q650 628 726 628Q922 628 1049 564Q1097 528 1097 493Q1097 487 1096 481Q1075 414 947 409Q849 397 836 397Q808 397 800 406Q797 408 797 412Q797 428 823 431Q892
439 961 447Q1047 459 1047 472Q1047 478 1032 484Q913 533 753 533Q452 533 136 387Q46 346 46 284Q46 206 176 163Q338 109 597 109Q683 109 840 116Q887 124 934 132Q990 142 1032 156Q1045 159 1045 186Q1045 210 1034 214Q1019 217 1000 217Q967 217 906 208T831
199Q819 199 816 202T813 213Q813 233 836 262T882 300Q897 306 979 306Q1068 307 1126 298Z" />
<glyph unicode="H" glyph-name="H" horiz-adv-x="1291" d="M1216 267Q1214 246 1184 243T1153 232Q1158 182 1162 132Q1173 76 1214 66Q1227 63 1227 57Q1227 36 1094 -9Q1088 -10 1083 -10Q1060 -10 1051 16Q1047 28 1044 67Q1043 117 1041 168Q1039 229 1029
227Q919 219 656 210Q429 203 427 201Q306 -14 88 -14Q71 -14 54 -13Q33 -11 11 -9Q-15 -3 -19 19Q-19 40 16 48Q46 56 76 63Q148 94 228 150Q303 203 303 218Q302 231 291 247T279 269Q279 274 283 279T297 284Q303 284 317 279T337 274Q344 274 349 278Q402 346
424 385Q458 449 458 508Q458 529 454 551Q452 561 440 576T429 607Q433 618 442 618Q450 618 460 609Q505 556 505 473Q505 409 464 271Q459 262 649 260Q819 259 968 263Q1004 264 1015 267Q1038 273 1039 291Q1049 550 1064 568Q1082 590 1111 602Q1136 613
1153 611Q1161 607 1161 550Q1161 547 1149 303Q1152 281 1171 281Q1176 281 1186 283T1202 285Q1216 285 1216 267Z" />
<glyph unicode="I" glyph-name="I" horiz-adv-x="673" d="M580 199Q611 185 611 174Q611 163 557 142Q512 -19 436 -19Q422 -19 407 -13Q369 1 354 11Q328 28 318 57Q316 60 316 64Q316 81 334 81Q340 81 345 76T357 71Q375 71 387 102Q388 106 405 135Q418 158
418 170Q418 190 388 196Q255 222 174 258Q56 311 7 400Q3 433 3 456Q3 520 34 548Q113 618 249 618Q340 618 399 591Q510 541 568 450Q599 402 599 329Q599 273 580 199ZM444 494Q358 576 245 576Q173 576 97 543Q75 533 55 507T35 457Q35 450 37 444Q60 375 157
315Q230 270 329 239Q413 212 424 216Q438 218 457 268Q478 324 478 380Q478 448 444 494Z" />
<glyph unicode="J" glyph-name="J" horiz-adv-x="1167" d="M1089 550Q1084 550 1076 552T1066 554Q1063 554 1066 548Q1081 478 1081 415Q1081 226 946 129Q767 1 507 1Q334 1 146 58Q-2 103 -2 182Q-2 194 18 216T56 242Q147 262 220 262Q358 262 507 183Q514
177 514 174Q514 168 496 169Q480 170 472 173Q336 227 210 227Q146 227 90 212Q67 198 67 187Q67 177 85 168T121 150Q158 127 289 109T564 91Q830 91 921 153Q950 178 966 257Q980 326 980 409Q980 511 962 544Q956 555 932 555Q913 555 870 546T813 537Q800
537 798 543T795 557Q795 575 811 593T856 618Q899 630 961 630Q1010 630 1093 620Q1117 611 1117 584Q1117 572 1109 561T1089 550Z" />
<glyph unicode="K" glyph-name="K" horiz-adv-x="1190" d="M1140 170Q1145 155 1145 141Q1145 97 1106 56Q1074 22 1027 0Q973 -25 918 -25Q836 -25 737 37Q712 52 561 166Q452 249 373 279Q361 286 343 286Q334 286 308 282T267 280Q260 280 238 282T203 285Q163
285 162 260Q160 199 157 138Q153 61 144 18Q139 -7 119 -7Q103 -7 90 9Q53 67 43 195T29 460Q29 465 28 485T26 517Q26 558 41 568Q82 595 144 597Q181 598 181 532Q181 508 175 457Q170 403 169 381Q165 363 192 361Q179 362 254 362Q270 362 299 358T343 353Q359
353 373 357Q393 362 631 474Q850 575 920 580Q935 581 946 569T958 545Q958 534 948 533Q839 517 693 455Q572 401 452 347Q440 339 440 329Q440 312 468 297Q722 103 924 103Q1021 103 1099 150Q1101 151 1115 165Q1126 176 1132 176Q1137 176 1140 170Z" />
<glyph unicode="L" glyph-name="L" horiz-adv-x="1257" d="M1206 169Q1209 158 1209 148Q1209 112 1168 83Q1040 -6 880 -6Q805 -6 694 15Q566 40 536 43Q300 63 286 63Q261 63 256 59Q210 30 137 4T23 -22Q-5 -22 -6 -8Q-10 26 31 42Q65 51 98 61Q145 69 193
76Q251 88 263 114Q274 167 274 261Q274 297 272 360T270 447Q270 509 280 520Q312 550 345 580Q387 615 421 615Q431 615 441 612Q445 610 445 604Q445 596 428 561T408 510Q404 421 399 331Q381 155 330 116Q326 111 326 108Q326 99 356 98Q382 98 408 98Q442
98 551 94Q653 91 716 91Q1009 91 1146 160Q1158 166 1158 177Q1158 196 1128 202Q1088 209 1037 209Q903 209 816 174Q805 171 805 180Q805 189 819 201T856 220Q910 234 1016 244Q1044 244 1071 243Q1121 241 1152 227Q1196 209 1206 169Z" />
<glyph unicode="M" glyph-name="M" horiz-adv-x="1683" d="M1624 76Q1627 68 1627 61Q1627 33 1587 4Q1574 -5 1561 -5Q1547 -5 1518 10Q1486 40 1468 99Q1453 154 1438 208Q1414 293 1390 378Q1360 474 1307 531Q1291 548 1284 548Q1277 548 1270 537Q1217 453
1179 355Q1162 312 1117 173Q1105 137 1105 90Q1105 52 1113 22Q1120 -7 1082 -7Q1063 -7 1051 4Q985 63 899 474Q890 517 869 517Q862 517 856 508Q779 387 738 268Q700 157 680 7Q678 -6 666 -6Q657 -6 633 5T602 17Q583 23 578 60Q574 92 571 124Q537 324 492
450Q471 489 436 521Q398 558 367 563Q345 567 322 567Q241 567 157 524Q80 486 19 422Q14 420 10 420Q0 420 0 429Q0 437 7 444Q95 526 164 566Q259 621 352 621Q392 621 432 611Q525 587 571 500Q598 450 620 365Q638 294 656 222Q663 223 665 220Q668 214 669
213Q727 360 785 461Q864 601 916 600Q957 599 978 542Q993 492 1007 442Q1030 366 1069 223Q1072 208 1077 208Q1080 208 1082 214Q1115 300 1148 386Q1192 495 1230 550Q1280 622 1332 621Q1415 619 1447 526Q1468 466 1513 312Q1555 173 1583 97Q1591 84 1605
83T1624 76Z" />
<glyph unicode="N" glyph-name="N" horiz-adv-x="1313" d="M1242 58Q1258 55 1258 45Q1258 34 1239 19T1201 -3Q1179 -12 1161 -12Q1123 -12 1104 27Q1099 41 1052 216Q1008 378 986 427T937 507T889 539Q878 539 870 529Q832 478 796 395Q749 289 734 187Q734
186 727 76Q723 4 708 -4Q701 -8 690 -8Q670 -8 642 6Q619 17 610 27Q592 46 580 110Q579 118 566 208Q549 325 505 411Q446 524 354 552Q335 554 316 554Q160 554 17 401Q7 390 2 390Q-2 390 -2 398Q-2 432 33 463Q85 506 180 570Q283 618 369 618Q452 618 510
572Q577 518 616 429Q636 384 673 254Q676 237 682 237Q691 237 706 281Q756 433 787 488Q847 598 941 627Q945 628 950 628Q967 628 989 615T1024 584Q1112 462 1149 249Q1164 191 1180 133Q1202 72 1242 58Z" />
<glyph unicode="O" glyph-name="O" horiz-adv-x="1223" d="M1156 417Q1167 381 1150 381Q1147 381 1143 384Q1116 408 1069 447Q953 516 717 516Q552 516 383 483Q224 453 167 416Q49 340 49 293Q49 205 317 142Q523 94 654 94Q900 94 1064 189Q1126 225 1126
274Q1126 295 1113 311Q998 449 738 449Q659 449 554 436Q539 434 539 443Q539 462 588 471Q680 488 768 488Q1053 488 1148 323Q1164 295 1164 260Q1164 202 1127 159Q1059 81 917 36T605 -10Q460 -10 326 24Q151 68 77 123Q-2 180 -1 274Q0 333 29 392Q64 462
124 497Q309 605 602 605Q684 605 820 596Q934 589 1020 549Q1121 501 1156 417Z" />
<glyph unicode="P" glyph-name="P" horiz-adv-x="1347" d="M1237 320Q1189 271 1041 226Q862 172 665 172Q525 172 391 201Q377 203 376 187T375 150Q375 134 377 102T379 55Q379 22 371 -1Q365 -19 345 -19Q329 -19 313 -9T292 13Q253 157 249 456Q249 463 258
465T267 476Q263 494 238 497Q221 499 163 483Q99 464 73 444Q67 437 67 430Q67 399 187 373Q216 367 216 352Q216 337 187 341Q117 352 90 361Q37 379 11 416Q5 430 5 443Q5 492 69 519Q322 624 644 624Q844 624 1074 584Q1145 571 1208 525Q1280 472 1280 410Q1280
364 1237 320ZM1222 413Q1206 440 1178 453T1120 479Q933 518 612 518Q413 518 393 507Q386 503 381 444T375 326Q375 251 384 249Q493 221 629 221Q794 221 965 260Q1115 293 1180 333Q1229 363 1229 394Q1229 405 1222 413Z" />
<glyph unicode="Q" glyph-name="Q" horiz-adv-x="1257" d="M1176 356Q1184 284 1119 220Q1074 176 996 138Q929 105 929 106Q931 103 940 103Q973 103 1045 133Q1124 166 1162 202Q1168 204 1172 204Q1181 204 1181 193Q1181 163 1140 99Q1116 48 1080 28Q1060
17 1001 6Q963 -1 909 -1Q833 -1 743 11Q664 23 664 27Q542 -4 448 -4Q315 -4 181 58Q123 92 108 105Q75 135 79 178Q30 227 26 232Q1 264 1 300Q1 309 2 318Q18 420 124 485Q177 518 320 568Q443 611 602 611Q817 611 987 540Q1164 465 1176 356ZM1077 258Q1105
292 1105 319Q1105 347 1070 377Q933 496 626 496Q609 496 473 493Q323 466 244 441Q114 401 43 338Q37 331 37 318Q37 276 69 242Q94 211 127 211Q141 211 175 219T229 227Q333 233 488 172Q571 136 654 99Q685 91 723 91Q816 91 912 134Q1014 180 1077 258ZM558
76Q565 87 435 133Q297 182 226 182Q200 182 187 174Q186 173 186 171Q186 151 316 109T519 66Q549 66 558 76Z" />
<glyph unicode="R" glyph-name="R" horiz-adv-x="1426" d="M1349 106Q1300 -9 1157 -9Q1116 -9 1067 0Q948 23 842 69Q755 106 634 180Q618 181 600 181Q579 181 536 179T472 177Q412 177 371 191Q373 210 418 227Q460 232 496 232Q537 232 583 225T647 217Q741
215 902 264Q1051 310 1110 352Q1165 391 1165 402Q1165 409 1147 421Q1124 437 1100 453Q953 520 722 520Q680 520 464 511Q433 510 402 509Q372 502 362 470Q350 380 348 245Q348 133 348 21Q348 -1 320 -1Q316 -1 297 1Q269 4 260 29Q256 55 251 80Q234 275
249 422Q250 432 261 449T270 471Q269 472 262 472Q226 472 156 449Q73 421 36 383Q32 377 26 377Q18 377 11 388T2 407Q8 461 65 490Q78 497 172 527Q451 616 712 616Q947 616 1126 540Q1148 522 1171 503Q1197 480 1207 459Q1205 454 1200 395Q1197 359 1171
341Q1082 280 958 242Q900 225 733 188Q731 176 894 135Q1075 89 1195 89Q1229 89 1256 93Q1280 97 1307 128T1336 159Q1353 157 1353 135Q1353 133 1349 106Z" />
<glyph unicode="S" glyph-name="S" horiz-adv-x="1212" d="M1131 170Q1128 147 1053 108Q990 75 919 52Q760 0 517 0Q368 0 282 20Q154 50 134 57Q53 84 12 137Q5 151 5 169Q5 195 20 208Q121 261 282 261Q310 261 391 258Q459 256 499 257Q517 258 530 249T544
231Q544 221 527 222Q498 223 461 223Q331 223 209 211Q76 199 77 182Q80 139 323 109Q503 87 620 87Q894 87 1078 200Q1102 212 1102 223Q1102 232 1087 237Q961 276 739 290Q435 308 401 313Q208 339 109 389Q92 406 92 422Q92 433 103 457T118 500Q129 563 497
616Q825 624 1033 553Q1054 543 1054 513Q1054 499 1047 491Q1031 470 1019 470Q1009 470 993 488T966 509Q750 539 544 539Q416 539 304 527Q256 516 208 505Q157 490 154 473Q151 453 170 440Q170 440 207 424Q316 404 438 402Q509 387 537 390Q686 380 835 370Q1012
351 1113 289Q1145 269 1145 247Q1145 239 1138 215T1131 170Z" />
<glyph unicode="T" glyph-name="T" horiz-adv-x="1022" d="M1033 567Q1043 557 1043 547Q1043 534 1026 524Q1018 519 982 510Q954 503 944 489Q922 425 922 309Q922 288 923 246T924 182Q924 124 919 84Q909 50 866 24Q855 17 786 -13Q777 -17 766 -17Q746 -17
746 -7Q746 -1 757 8Q795 40 808 92Q816 125 817 192Q818 270 837 343Q849 390 871 442Q889 484 888 489Q885 499 799 508Q723 516 661 516Q612 516 500 527T327 538Q186 538 83 491Q42 467 42 454Q42 436 107 422T223 412Q248 414 322 425Q388 434 404 434Q411
434 413 433Q416 429 416 424Q416 405 362 392Q291 375 218 375Q112 375 29 411Q2 427 2 467Q2 490 11 507Q76 604 263 622Q290 624 318 624Q414 624 597 582T865 540Q929 540 984 556Q1016 570 1019 570Q1026 570 1033 567Z" />
<glyph unicode="U" glyph-name="U" horiz-adv-x="1222" d="M1157 76Q1177 62 1177 49Q1177 26 1123 8Q1075 -8 1033 -7Q998 -12 979 36Q963 155 966 273Q965 284 958 284Q951 284 936 269Q916 250 914 249Q763 116 715 83Q590 -3 479 -3Q430 -3 381 13Q306 38
269 129Q241 209 213 288Q205 306 183 410Q166 489 136 503Q127 507 116 507Q96 507 63 490T22 472Q19 472 16 474Q10 479 10 488Q10 503 26 527Q41 548 57 561Q117 610 174 610Q191 610 209 606Q266 594 287 531Q300 491 304 399Q307 302 317 267Q321 253 318
221T320 174Q328 151 361 142Q434 121 507 121Q760 121 953 349Q974 374 975 440Q976 517 984 538Q1002 584 1066 582Q1106 581 1106 557Q1106 552 1104 547Q1085 506 1085 384Q1085 351 1087 332Q1103 198 1105 191Q1118 131 1157 76Z" />
<glyph unicode="V" glyph-name="V" horiz-adv-x="1032" d="M948 590Q975 513 975 472Q975 442 960 425T944 400Q948 282 907 184Q859 71 764 21Q715 -11 651 -11Q609 -11 583 4Q507 61 440 159Q414 198 331 343Q264 460 211 524Q170 560 147 560Q138 560 130 556Q87
525 36 452Q20 435 12 435Q6 435 6 447Q6 457 11 476Q65 592 177 618Q190 620 202 620Q279 620 359 538Q406 480 503 301Q588 146 661 78Q690 50 717 50Q725 50 732 53Q818 95 859 201Q887 274 900 400Q867 547 867 598Q867 631 879 631Q934 630 948 590Z" />
<glyph unicode="W" glyph-name="W" horiz-adv-x="1560" d="M1469 551Q1471 510 1471 474Q1471 135 1237 7Q1196 -15 1174 -15Q1143 -15 1101 18Q1045 63 1001 137Q963 203 926 269Q923 275 918 275Q908 275 878 206Q839 116 807 72Q755 -3 691 -16Q662 -14 639
16Q629 29 607 71Q520 240 401 502Q364 556 268 580Q219 585 149 549Q106 528 42 483Q-7 448 -11 451Q-13 453 -13 456Q-13 481 60 538Q140 600 204 611T313 622Q430 622 479 549Q482 550 485 546T492 544Q532 482 601 312Q665 153 722 77Q730 63 742 63Q758 63
780 89Q821 154 832 174Q849 204 864 244Q888 282 888 327Q888 378 855 441Q831 482 806 522Q800 533 800 543Q800 577 862 586Q916 589 954 505Q978 435 1003 366Q1046 260 1078 204Q1134 105 1200 58Q1212 53 1234 53Q1278 53 1291 69Q1394 155 1394 360Q1394
346 1389 511Q1389 518 1380 525T1370 550Q1370 562 1374 580Q1379 603 1412 610Q1432 610 1450 591T1469 551Z" />
<glyph unicode="X" glyph-name="X" horiz-adv-x="1144" d="M1089 574Q1095 518 1033 516Q985 515 902 468Q838 432 769 380Q708 335 709 329Q709 318 793 223Q886 117 948 76Q970 61 997 61Q1021 61 1052 74Q1079 85 1080 84Q1092 77 1092 67Q1092 41 1030 9Q998
-8 963 -8Q894 -8 814 54Q754 121 628 250Q614 258 601 244Q580 222 430 113Q268 -4 211 -33Q206 -36 201 -36Q185 -36 185 -21Q185 -14 191 -9Q251 41 381 135T572 279Q583 285 576 294Q483 412 417 464Q317 542 211 539Q153 538 104 501Q62 461 20 422Q4 407
-1 407Q-3 407 -3 410Q-3 423 32 474T90 543Q202 632 306 632Q368 632 424 600T556 483Q637 392 678 364Q686 360 755 416T821 478Q817 486 817 492Q817 505 843 507Q873 510 882 519Q914 545 946 570Q1012 618 1059 618Q1084 618 1089 574Z" />
<glyph unicode="Y" glyph-name="Y" horiz-adv-x="1190" d="M1128 578Q1129 554 1129 531Q1129 371 1067 251Q999 119 867 56Q723 -13 551 -13Q443 -13 351 18Q320 29 300 38Q284 28 277 28Q270 28 264 38Q252 59 248 64Q208 115 201 126Q174 169 179 200Q180 207
190 217T214 228Q225 228 236 218Q258 198 279 129Q297 70 315 70Q318 70 321 71Q320 71 369 53Q426 33 500 33Q600 33 727 69Q821 96 887 180Q925 228 986 349Q1005 379 1005 403Q1005 423 995 423Q992 423 989 420Q824 184 670 184Q638 184 607 196Q521 240 407
373Q286 513 213 558Q176 573 139 573Q88 573 56 544Q33 515 14 515Q5 515 5 524Q5 547 56 588Q120 617 192 617Q252 617 299 596Q350 565 431 476Q522 376 563 344Q643 282 725 282Q827 282 919 382Q996 466 1041 587Q1047 596 1077 596Q1127 596 1128 578Z" />
<glyph unicode="Z" glyph-name="Z" horiz-adv-x="1167" d="M1116 120Q1091 84 1065 48Q1021 -2 971 -2Q962 -2 952 0Q860 24 769 47Q574 91 437 91Q362 91 306 78Q188 50 66 3Q56 -1 48 -1Q23 -1 23 25Q23 47 44 67Q70 91 116 99Q245 122 526 268Q738 379 902
484Q905 487 905 490Q905 500 886 501Q783 507 685 507Q498 507 148 471Q124 468 77 451T20 434Q10 434 10 442Q10 452 24 476Q111 622 354 622Q415 622 495 612Q548 606 601 599Q645 595 785 574Q915 555 979 551Q998 550 1022 570T1056 591Q1065 591 1073 584Q1075
576 1075 569Q1075 540 1043 514Q1037 509 989 480Q842 391 409 158Q398 154 398 145Q398 133 413 138Q525 159 667 159Q795 159 1068 133Q1078 132 1092 138T1114 144Q1123 144 1123 132Q1123 124 1116 120Z" />
<glyph unicode="[" glyph-name="bracketleft" horiz-adv-x="364" d="M322 -238Q322 -246 313 -246H102Q91 -246 91 -234V738Q91 747 101 747H306Q312 747 312 741V717Q312 709 304 709H169Q159 709 159 698V-193Q159 -208 166 -208H314Q322 -208 322 -217V-238Z" />
<glyph unicode="\" glyph-name="backslash" horiz-adv-x="517" d="M529 -182Q530 -185 530 -188Q530 -204 514 -204Q505 -204 499 -194Q354 34 161 342Q141 393 90 481Q8 622 -53 652Q-88 670 -88 698Q-88 712 -79 730Q-53 764 -33 758Q10 737 50 666Q68 628 86
591Q90 579 112 567T134 546Q134 538 124 529Q120 526 120 520Q120 510 131 496Q141 479 337 149Q516 -149 529 -182Z" />
<glyph unicode="]" glyph-name="bracketright" horiz-adv-x="364" d="M263 -234Q263 -246 252 -246H41Q32 -246 32 -238V-217Q32 -208 40 -208H189Q196 -208 196 -196V698Q196 709 186 709H50Q42 709 42 717V741Q42 747 48 747H253Q263 747 263 738V-234Z" />
<glyph unicode="^" glyph-name="asciicircum" horiz-adv-x="517" d="M478 260H413L249 588H244L86 260H23L234 683H266L478 260Z" />
<glyph unicode="_" glyph-name="underscore" horiz-adv-x="517" d="M500 -126H0V-76H500V-126Z" />
<glyph unicode="`" glyph-name="grave" horiz-adv-x="222" d="M206 299L194 289Q191 288 190 289L39 389Q20 402 20 419Q20 446 48 448Q67 449 84 428L206 304Q208 300 206 299Z" />
<glyph unicode="a" glyph-name="a" horiz-adv-x="427" d="M376 181Q363 136 371 33Q363 18 344 12Q329 6 313 1Q301 5 301 21Q301 23 301 29Q302 34 302 36Q302 54 289 60Q190 -4 118 -4Q77 -4 49 19T20 90Q20 110 26 126Q87 241 279 234Q309 233 344 215T376
181ZM301 160Q296 170 271 170Q224 170 179 150Q149 140 120 116T94 84Q96 79 132 82Q167 84 189 90Q226 98 263 107Q302 122 301 160Z" />
<glyph unicode="b" glyph-name="b" horiz-adv-x="404" d="M370 161Q372 155 372 149Q372 136 363 116T354 86Q354 78 358 70T362 58Q362 43 342 24T304 0Q283 -5 260 -5Q183 -5 97 51Q84 21 51 4Q24 4 24 17Q25 67 20 478Q20 492 34 492Q42 492 59 487Q118 449
118 342Q118 320 114 268Q111 222 112 202Q125 203 182 214Q230 223 259 223Q339 223 370 161ZM283 119Q256 142 201 142Q183 142 134 136Q119 126 119 118Q119 111 139 104Q167 93 195 82T247 70Q260 70 274 74T289 102Q289 114 283 119Z" />
<glyph unicode="c" glyph-name="c" horiz-adv-x="359" d="M308 203Q304 193 292 192Q280 190 277 197Q268 216 246 216Q238 216 223 213T202 209Q137 196 83 146Q75 136 75 126Q75 111 91 101T133 90Q257 88 298 127Q300 129 304 129Q323 129 323 96Q323 55 273
24Q234 -1 143 -1Q72 -1 46 27Q16 59 16 116Q16 162 34 187Q62 226 126 246Q178 263 235 263Q284 263 298 252Q320 235 308 203Z" />
<glyph unicode="d" glyph-name="d" horiz-adv-x="493" d="M456 30T422 14Q383 -5 352 -5Q342 -5 334 -3Q318 1 304 22Q293 40 282 58Q277 69 261 53Q225 34 189 15Q148 -4 119 -4Q96 -4 76 7Q23 37 23 102Q23 144 42 170Q74 215 145 226Q169 230 263 230Q266 246
266 267Q266 286 263 327T259 388Q259 479 322 500Q330 504 339 504Q361 504 366 483Q365 453 359 367Q355 300 355 260Q355 188 367 122Q376 89 402 79Q411 76 444 73Q465 71 465 59Q465 52 461 41ZM252 152Q224 157 199 157Q152 157 122 139Q93 114 93 101Q93
85 131 85Q167 85 248 116Q267 124 267 136Q267 148 252 152Z" />
<glyph unicode="e" glyph-name="e" horiz-adv-x="416" d="M379 100Q380 94 380 89Q380 57 340 35Q314 20 288 16Q181 -1 161 -1Q81 -1 39 60Q21 96 21 131Q21 171 47 193Q137 269 247 269Q279 269 310 262Q327 258 345 245Q369 227 369 207Q369 197 363 187Q339
146 271 123Q254 117 168 97Q147 92 147 84Q147 75 191 75Q234 75 284 82T350 100Q372 115 379 100ZM271 176Q284 181 284 192Q284 207 235 207Q153 207 116 149Q111 142 111 136Q111 125 123 125Q130 125 139 130Q199 148 271 176Z" />
<glyph unicode="f" glyph-name="f" horiz-adv-x="337" d="M302 471Q311 457 311 435Q311 406 293 404Q271 404 234 422T177 441Q161 441 146 432Q142 430 142 382Q142 249 158 242Q183 237 243 240Q294 242 299 238T305 225Q305 210 287 193T251 171Q223 171 168
164Q165 161 165 146Q165 124 173 69Q180 20 180 19Q148 1 126 1Q109 1 92 11Q73 34 67 83Q57 159 56 164Q54 174 38 186T19 211Q17 217 17 222Q17 233 35 240Q57 249 63 256Q61 294 61 320Q61 406 86 433Q124 473 136 482Q167 507 198 506Q226 502 254 498Q284
491 302 471Z" />
<glyph unicode="g" glyph-name="g" horiz-adv-x="416" d="M379 198Q368 35 360 0Q335 -102 251 -159Q236 -169 192 -169Q123 -169 102 -136Q84 -108 84 -73Q84 -50 97 -47Q110 -44 155 -67T224 -90Q244 -90 257 -77Q262 -72 268 -38T275 22Q275 53 264 50Q185
9 127 9Q90 9 53 23Q21 35 21 63Q21 73 26 94T31 125Q31 136 26 145T20 160Q20 188 80 220Q114 238 153 238Q172 238 207 233T261 227Q303 227 338 252Q348 256 355 256Q381 256 381 218Q381 208 379 198ZM286 143Q286 159 248 159Q213 159 153 146Q105 136 105
115Q105 109 111 104Q128 89 160 89Q200 89 243 109T286 143Z" />
<glyph unicode="h" glyph-name="h" horiz-adv-x="528" d="M497 72Q497 42 467 24Q452 15 409 1Q393 -4 378 -4Q332 -4 284 44Q248 85 211 126Q208 129 205 129Q195 129 174 97Q144 52 130 37Q100 6 69 7Q36 9 32 50Q25 117 25 215Q25 207 32 500Q32 518 45 518Q68
518 98 483Q126 443 126 377Q126 341 112 245Q99 158 103 112Q105 103 111 103Q121 103 146 134Q168 161 190 187Q206 203 221 218Q242 238 256 238Q268 238 278 226Q292 209 320 160Q345 114 363 95Q391 66 426 66Q433 66 441 67Q442 67 464 77Q479 84 487 84Q497
84 497 72Z" />
<glyph unicode="i" glyph-name="i" horiz-adv-x="292" d="M167 432Q169 425 169 418Q169 391 149 370T110 348Q57 348 44 389Q43 395 43 401Q43 455 106 461Q120 464 130 464Q159 464 167 432ZM271 38Q261 19 228 7Q203 -4 175 -4Q124 -4 72 33Q37 67 37 135Q37
189 62 216Q98 247 127 247Q148 247 148 214Q148 80 146 146Q147 102 160 83T196 64Q210 64 234 72T264 80Q276 80 276 65Q276 55 271 38Z" />
<glyph unicode="j" glyph-name="j" horiz-adv-x="292" d="M149 461Q167 448 167 428Q167 395 131 374T60 369Q42 382 42 408Q42 423 48 432Q79 468 118 468Q133 468 149 461ZM263 62Q254 53 225 42Q180 25 168 19Q164 17 146 -87Q129 -196 102 -223Q89 -240 74
-240Q59 -240 38 -218Q16 -185 16 -140Q16 -95 32 -61Q44 -35 70 37Q70 72 64 133T58 211Q58 239 67 239Q94 239 123 225T167 184Q179 164 176 121T176 71Q178 68 210 81T252 90Q266 87 266 71Q266 66 263 62ZM83 -96Q86 -49 81 -52Q70 -59 62 -76T54 -103Q52 -146
69 -148Q79 -149 83 -96Z" />
<glyph unicode="k" glyph-name="k" horiz-adv-x="561" d="M518 53Q508 23 442 7Q420 2 395 2Q329 2 239 38Q189 60 139 82Q130 85 130 46Q129 2 121 -2T100 -6Q43 -6 41 26Q32 191 27 493Q27 508 47 510Q68 512 108 487Q154 459 154 429Q154 399 144 335T134 238Q134
192 140 189Q143 188 172 216Q209 251 237 269Q282 297 320 296Q335 296 335 279Q335 268 327 264Q293 246 240 209T186 167Q184 157 279 133Q383 107 393 99T427 91Q438 91 460 93T491 95Q522 95 522 73Q522 65 518 53Z" />
<glyph unicode="l" glyph-name="l" horiz-adv-x="244" d="M212 30Q209 16 172 7T107 -3Q73 -3 63 12Q34 67 34 205Q34 229 35 269T36 322Q36 369 35 415Q35 470 41 506Q43 522 56 522Q71 522 102 499Q124 481 146 464Q172 445 168 420Q137 211 137 86Q137 74 138
72Q148 59 167 59Q172 59 181 60T194 61Q216 61 212 30Z" />
<glyph unicode="m" glyph-name="m" horiz-adv-x="887" d="M823 102Q847 99 847 83Q847 63 815 34T765 3T732 0Q695 0 634 29Q620 36 570 98T513 160Q504 158 483 126T463 79Q464 76 476 52Q485 36 485 27Q485 21 482 16Q470 3 448 3Q426 3 403 14Q373 33 327 101Q284
163 279 163Q271 163 250 121Q222 67 205 45Q173 3 137 3Q122 3 107 10Q97 14 82 92T38 180Q14 188 14 205Q14 212 18 216Q32 231 63 231Q74 231 104 227Q130 224 145 195Q154 178 161 143Q168 115 172 113Q175 112 202 144Q237 185 260 206Q299 239 327 239Q358
239 396 189T437 139Q440 139 484 188T543 237Q591 232 642 177Q705 108 723 98Q733 92 751 92Q767 92 793 97T823 102Z" />
<glyph unicode="n" glyph-name="n" horiz-adv-x="629" d="M583 81Q590 73 590 62Q590 27 553 16Q505 2 474 2Q442 2 421 16Q386 40 331 108Q281 170 278 170Q269 169 237 113Q210 67 184 21Q176 8 156 8Q133 8 119 21Q105 40 102 91Q97 150 91 167Q77 203 37 203Q30
203 22 202Q11 201 11 213Q11 220 17 223Q45 251 91 251Q112 251 127 242Q144 229 163 184Q180 143 184 143Q190 142 222 171Q251 198 261 210Q289 245 322 245Q339 245 356 236Q384 222 442 148Q494 83 537 76Q543 75 556 79T575 83Q580 83 583 81Z" />
<glyph unicode="o" glyph-name="o" horiz-adv-x="427" d="M383 126Q386 114 386 101Q386 53 359 38Q266 -1 185 -1Q96 -1 43 49Q22 75 22 120Q22 165 43 193Q98 248 196 248Q248 248 318 232Q364 222 383 186Q389 176 389 165Q389 157 386 144T383 126ZM316 87Q339
95 339 106Q339 120 312 133Q257 153 191 153Q142 153 99 141Q80 133 80 115Q80 98 97 91Q136 75 209 75Q278 75 316 87Z" />
<glyph unicode="p" glyph-name="p" horiz-adv-x="416" d="M378 173Q380 163 370 139T362 101Q364 88 364 77Q364 32 324 18Q304 8 281 8Q253 8 205 28Q151 50 130 53Q125 56 120 53Q114 49 116 40Q116 -113 117 -50Q116 -118 104 -133Q74 -172 47 -172Q24 -172
26 -134Q19 -39 19 71Q19 164 28 176Q88 253 218 253Q284 253 324 233T378 173ZM262 87Q307 87 307 110Q307 124 289 141T253 162Q225 167 192 167Q126 167 121 144Q119 129 165 108T262 87Z" />
<glyph unicode="q" glyph-name="q" horiz-adv-x="438" d="M398 176Q374 123 347 44Q320 -38 324 -48Q326 -51 328 -51Q333 -51 346 -33T367 -14Q375 -14 380 -36Q385 -52 370 -93Q352 -142 320 -158Q304 -164 290 -164Q235 -164 235 -90Q235 -59 248 -4T261 56Q261
60 259 61Q259 61 208 36Q154 9 115 9Q92 9 73 18Q22 42 22 110Q22 153 40 183Q90 248 182 248Q220 248 276 237Q313 226 327 226Q341 226 381 242Q387 245 392 245Q408 245 408 221Q408 198 398 176ZM261 119Q277 127 277 140Q277 163 224 163Q144 163 106 147Q83
137 83 119Q83 102 101 98T143 94Q210 94 261 119Z" />
<glyph unicode="r" glyph-name="r" horiz-adv-x="393" d="M351 244Q354 238 354 228Q354 186 327 149Q318 141 309 141Q302 141 287 149Q261 163 243 163Q228 163 218 153Q201 137 194 90Q191 48 187 6Q179 -10 153 -10Q134 -10 124 1Q104 25 97 85Q89 153 82
168Q71 186 47 191T20 199T18 205Q18 215 34 221Q49 224 65 228T96 233Q130 233 154 206Q161 175 171 175Q179 175 195 200T218 228Q261 255 313 255Q346 255 351 244Z" />
<glyph unicode="s" glyph-name="s" horiz-adv-x="404" d="M362 127Q373 117 373 100Q373 63 341 40Q293 7 209 -13Q141 -29 104 -26Q82 -24 51 1T19 41Q19 46 24 48Q52 56 97 56Q118 56 154 54T203 52Q216 52 224 53Q256 58 288 63Q330 71 329 83Q328 100 273
106Q260 107 184 110Q144 111 104 111Q61 115 36 140Q31 145 31 152Q31 168 54 192Q75 213 100 228Q200 264 259 264Q271 264 283 263Q357 255 362 232Q366 217 352 201T327 182Q287 204 224 204Q141 204 76 171Q74 168 74 165Q74 153 87 153T113 152Q139 152 186
158T256 164Q318 164 362 127Z" />
<glyph unicode="t" glyph-name="t" horiz-adv-x="314" d="M292 66Q292 52 245 26Q205 4 167 -9Q153 -14 138 -14Q103 -14 77 9Q46 36 42 99T29 169Q10 182 10 199Q10 218 33 233Q35 235 35 248Q35 254 35 272Q34 290 34 301Q34 366 54 386Q60 390 68 390Q100 390
132 350Q143 337 143 314Q143 305 141 288T138 264Q138 229 186 232Q225 234 218 234Q245 234 245 218Q245 211 239 199Q230 181 197 178Q159 175 143 163Q136 157 136 111Q136 60 149 57Q156 56 163 56Q181 56 215 67T265 79Q292 79 292 66Z" />
<glyph unicode="u" glyph-name="u" horiz-adv-x="482" d="M456 50Q461 47 461 41Q461 32 452 21T432 8Q417 6 405 6Q360 6 346 40Q326 111 320 111Q320 111 275 64Q229 14 220 8Q204 -1 190 -1Q172 -1 141 18Q98 57 53 127Q10 193 16 206Q33 237 67 237Q85 237
103 228Q133 211 173 131Q209 59 223 59Q226 59 229 61Q262 81 285 137Q310 198 318 206Q357 244 381 244Q398 244 412 228Q417 221 417 204Q417 196 416 176T414 143Q414 75 456 50Z" />
<glyph unicode="v" glyph-name="v" horiz-adv-x="482" d="M438 242Q453 229 453 212Q453 201 444 178T434 144Q438 132 426 132Q418 132 412 139Q407 121 345 61T260 -2Q252 -3 245 -3Q190 -3 142 63Q108 115 73 167Q69 170 64 170Q59 170 48 165T33 159Q27 159
24 167Q18 181 43 211T91 242Q135 238 179 189Q196 170 243 100Q274 55 288 57Q305 60 342 105Q375 145 387 170Q390 177 390 190Q390 195 390 205Q389 215 389 219Q389 248 411 248Q421 248 438 242Z" />
<glyph unicode="w" glyph-name="w" horiz-adv-x="730" d="M691 163Q678 138 638 83Q619 56 599 29Q564 -7 536 -7Q523 -7 511 0T433 82Q372 151 367 148Q350 136 294 60Q250 0 211 0Q191 0 168 13Q158 21 115 95Q79 158 37 167Q28 169 28 177Q28 189 47 205T88
224Q129 228 168 189Q191 165 222 115Q246 76 251 78Q256 79 314 155T400 231Q441 230 481 192Q492 181 541 122Q572 84 590 84Q599 84 607 91Q625 106 626 161Q626 199 626 238Q627 242 628 243Q643 254 656 254Q672 254 688 237Q699 221 699 197Q699 178 691
163Z" />
<glyph unicode="x" glyph-name="x" horiz-adv-x="460" d="M420 144Q427 144 427 135Q427 110 392 62Q353 10 319 1Q311 -1 302 -1Q267 -1 232 43T193 88Q190 88 133 43T58 -2Q53 -2 51 1T49 10Q49 34 100 73Q128 95 157 116Q160 125 160 133Q160 150 140 165Q122
177 104 189Q98 193 89 193Q79 193 60 188T33 182Q21 182 21 194Q21 201 24 210T68 236Q116 256 154 256Q189 256 210 238Q220 230 237 205Q252 185 259 183Q291 204 324 226Q361 248 398 249Q408 249 408 244Q408 238 398 225T332 186Q288 165 286 137Q284 127
301 108T331 88Q354 88 377 115T420 144Z" />
<glyph unicode="y" glyph-name="y" horiz-adv-x="449" d="M394 74Q377 1 368 -22Q348 -74 311 -99Q307 -102 284 -126Q267 -144 246 -150Q231 -154 217 -154Q182 -154 158 -129Q140 -110 140 -83Q140 -72 143 -63Q159 -33 170 -33Q175 -33 180 -36Q228 -73 266
-73Q280 -73 289 -68T298 1Q298 63 290 64Q269 49 249 34Q209 5 183 5Q171 5 162 11Q132 38 95 110T27 212Q16 222 16 231Q16 244 39 254Q58 261 76 261Q113 257 152 206Q175 175 207 114Q232 67 236 69Q302 115 302 180Q302 188 301 196Q300 209 337 233T389 257Q410
253 410 197Q410 143 394 74Z" />
<glyph unicode="z" glyph-name="z" horiz-adv-x="416" d="M321 -44Q321 -92 308 -106Q292 -119 276 -133Q219 -187 165 -187Q152 -187 140 -184Q113 -178 89 -162Q62 -145 61 -129Q62 -88 122 -51Q175 -21 228 8Q232 12 232 17Q232 38 210 34Q200 34 174 26T136
18Q124 18 118 24Q105 37 105 55Q105 80 133 86T194 98T243 119Q279 148 279 167Q279 181 243 181Q164 181 51 122Q46 120 41 120Q16 120 16 162Q16 194 40 222Q49 232 105 246Q166 261 216 261Q274 261 294 238T315 174Q315 143 303 127Q303 126 281 104Q269 92
269 78Q280 63 292 48Q306 30 314 28Q335 23 351 34Q353 36 356 36Q363 36 369 29T376 15Q376 9 349 -8T321 -44ZM244 -69Q253 -62 253 -52Q253 -44 248 -38T239 -34Q207 -51 167 -79Q116 -114 116 -126Q116 -132 130 -132Q158 -132 244 -69Z" />
<glyph unicode="{" glyph-name="braceleft" horiz-adv-x="366" d="M328 -232Q328 -247 321 -247Q305 -247 288 -246Q215 -242 162 -210Q88 -167 88 -84Q88 -54 106 18Q123 86 123 149Q123 212 91 232Q77 241 56 243Q42 244 42 260Q42 279 57 279T90 286Q123 295
123 352Q123 420 106 488Q88 560 88 592Q88 660 145 703Q195 741 264 746Q277 747 311 747Q328 747 328 733Q328 716 316 716Q300 716 284 714Q231 707 200 678Q166 647 166 598Q166 552 174 498T182 377Q182 330 154 299Q142 287 132 277T121 260Q121 254 131
244Q149 227 156 218Q182 186 182 141Q182 77 174 21T166 -78Q166 -181 286 -210Q303 -214 321 -214Q328 -214 328 -232Z" />
<glyph unicode="|" glyph-name="bar" horiz-adv-x="360" d="M208 -217Q208 -232 197 -232H156Q143 -232 143 -217V714Q143 729 156 729H196Q208 729 208 711V-217Z" />
<glyph unicode="}" glyph-name="braceright" horiz-adv-x="366" d="M314 260Q314 244 301 243Q280 241 266 232Q233 211 233 149Q233 86 251 18T269 -84Q269 -167 195 -210Q142 -242 69 -246Q52 -247 36 -247Q29 -247 29 -232Q29 -214 36 -214Q99 -214 143 -179Q191
-141 191 -78Q191 -27 182 21Q174 104 174 141Q174 185 201 218Q208 227 226 244Q236 254 236 260Q236 266 226 275Q205 296 202 299Q174 330 174 377Q174 418 182 498Q191 545 191 598Q191 647 158 677T72 714Q56 716 43 716T29 733Q29 747 46 747Q79 747 92 746Q161
741 211 703Q269 660 269 592Q269 556 251 488T233 352Q233 296 267 286Q284 279 301 279Q314 279 314 260Z" />
<glyph unicode="~" glyph-name="asciitilde" horiz-adv-x="517" d="M443 309Q443 245 414 207T344 169Q309 169 261 202L222 229Q190 251 156 251Q139 251 126 234Q110 212 110 171H57Q57 235 86 273T156 311Q200 311 236 287L278 259Q323 229 341 229Q390 229
390 309H443Z" />
</font>
</defs>
</svg>
